<?xml version="1.0" encoding="UTF-8"?>
<svg id="Layer_1" data-name="Layer 1" xmlns="http://www.w3.org/2000/svg" viewBox="0 0 1920 1080">
  <defs>
    <style>
      .cls-1, .cls-2 {
        fill: none;
      }

      .cls-3 {
        fill: #c1ef18;
      }

      .cls-4 {
        fill: #1e1e1e;
      }

      .cls-5 {
        fill: #9d9d9e;
      }

      .cls-6 {
        fill: #a01ef4;
      }

      .cls-2 {
        stroke: #94b406;
        stroke-miterlimit: 10;
      }

      .cls-7 {
        fill: #313335;
      }
    </style>
  </defs>
  <path class="cls-2" d="M603.74,218.49c-.37.14-.56.22-.56.22"/>
  <g>
    <path class="cls-4" d="M690.15,425.53s.48-.18,1.38-.53l-1.38.53Z"/>
    <path class="cls-4" d="M658.15,463.6s.48-.18,1.38-.53l-1.38.53Z"/>
    <path class="cls-4" d="M1072.92,1018.97c-.24,0-.48,0-.72-.03-.76-.06-76.99-6.3-174.63-24.29-90.32-16.64-218.07-47.04-313.78-97.39-2.27-1.2-3.92-3.31-4.53-5.81-.38-1.56-9.29-38.66-10.15-78.93-.51-24.15,2.02-44.44,7.53-60.3,7.44-21.41,20.27-35.03,38.13-40.48,0,0,.24-.08.31-.1,2.27-.68,4.64-1.23,7.09-1.64-.47-23.44.72-79.46,20.98-108.43-13.26-7.06-29.1-19.7-35.82-38.4-7.08-19.72-3-41.81,12.15-65.64,36.89-60.02,146.99-130.78,220.57-154.65-3.63-7.72-6.81-17.18-7.58-27.55-7.04-39.96,1.77-86.5,3.81-96.33-5.5-30.14-17.06-71.54-41.05-101.2-14.42-17.83-26.71-23.01-26.83-23.06-3.02-1.17-5.09-3.85-5.54-7.06-1.44-10.24,5.34-20.76,6.72-22.76,1.47-2.15,3.81-3.55,6.4-3.83.33-.04.65-.05.98-.05,2.25,0,4.43.85,6.1,2.4,65.55,61.09,86.96,129.19,91.6,146.71,34.83,18.63,59.51,46.44,63.03,50.51l.05.05c12.76,13.35,17.84,22.86,22.33,31.25,4.32,8.09,7.74,14.48,17.73,23.44,7.63,6.85,17.19,10.18,29.22,10.18,11.58,0,22.8-3.09,30.99-5.34l.12-.03c13.19-3.65,122.16-31.6,130.49-32.87,1.36-.21,2.88-.32,4.5-.32,3.94,0,17.28.78,23.82,10.81,2.83,4.35,5.2,11.83.37,22.78-5.33,12.09-29.44,34.11-59.64,54.98,40.03,18.1,74.07,39.82,101.35,64.71,36.79,33.55,61.17,72.81,72.47,116.7.06.17.11.35.15.52,3.22,12.6,5.4,25.8,6.47,39.3,4.32,6.61,16.93,27.68,25.25,59.92,9.13,35.39,14.6,91.64-11.18,158.66-.58,1.5-1.55,2.82-2.81,3.81l-250.92,197.84c-1.58,1.25-3.54,1.92-5.54,1.92Z"/>
    <path class="cls-4" d="M1309.37,599.86c-.99-14.07-3.16-27.44-6.4-40.12l-.02-.02c-23.34-91.51-101.9-148.49-183.95-182.46,36.75-23.49,65.28-49.28,70.13-60.26,8.44-19.13-11.83-21.96-19.15-20.82-7.32,1.12-113.14,28.14-129.47,32.65-16.33,4.49-46.74,12.93-68.68-6.77-21.96-19.7-16.33-29.82-40.54-55.16,0,0-.02-.02-.04-.02h0c-1.08-1.3-27.48-32.06-64.3-50.67,0,0-16.83-78.06-89.98-146.23,0,0-6.27,9.14-5.24,16.46,0,0,53.82,20.91,73.67,132.71,0,0-11.72,52.27-4.03,95.08h0c.79,12.07,5.57,24.02,11.79,34.05-71.44,19.53-188.77,93.19-226.08,153.98h0c-39.97,62.86,16,91.19,31.07,96.1-30.42,24.11-27.15,110.97-26.78,119.1,0,.31.26.57.55.57-.35.02-.53.04-.53.04-5,.15-9.58.88-13.72,2.13-.09.04-.18.09-.26.13.04-.02.02-.07-.02-.04-65.63,20.03-29.43,169.04-29.43,169.04,183.36,96.44,484.96,120.68,484.96,120.68l250.92-197.84c48.25-125.46-14.46-212.33-14.46-212.33ZM650.89,734.45c-.11-.37-.22-.75-.35-1.1.13.35.26.72.35,1.1ZM648.79,729.13c-.42-.83-.88-1.62-1.34-2.34.48.72.92,1.51,1.34,2.34ZM617.19,720.47c-.18.09-.33.2-.48.31.15-.13.31-.22.48-.31ZM622.12,789.39c.64.81,1.27,1.6,1.93,2.34-.66-.75-1.31-1.53-1.93-2.34Z"/>
    <path class="cls-1" d="M1256.69,734.85c-8.04-2.96-38.53,19.55-38.53,19.55,0,0-83.23,65-98.85,28.64-9.51-15.27-62.98-8.02-66.38-3.79-3.37,4.23-21.98,21.56-50.73,17.75-28.73-3.81-12.34-12.69-54.13-15.65-41.81-2.96-58.29,17.33-77.31,12.27-19.02-5.08-22.83-24.83-34.14-24.63-6.66-3.07-20.69-.9-30.44,3.88-13.52,6.62-20.95,11.59-69.23,15.73-48.25,4.12-80.8-19.04-84.37-46.06-.42-3.07-.99-5.74-1.73-8.09-.09-.37-.22-.75-.35-1.1-.53-1.56-1.12-2.96-1.75-4.23-.42-.83-.85-1.62-1.34-2.34-.92-1.42-1.91-2.63-2.91-3.64-.77-.77-1.53-1.42-2.3-1.97-.5-.35-1.01-.68-1.49-.96-.28-.15-.55-.28-.81-.42-.5-.26-1.01-.48-1.49-.66-.96-.37-1.88-.61-2.7-.79-.37-.09-.72-.13-1.05-.18-1.25-.18-2.21-.18-2.78-.13-.28,0-.55-.26-.55-.57-.37-8.13-3.64-95,26.78-119.1l414.77,74.6,186.16-29.67c14.2,9.44-2.34,91.56-2.34,91.56Z"/>
    <path class="cls-6" d="M1302.93,750.5s-2.74,14.11-21.54,16.79c-18.82,2.7-37.65,19.37-42.47,27.44-4.84,8.06-10.23,16.13-27.96,15.58-17.75-.53-30.11,8.06-28.49,23.12,1.6,15.05-8.06,44.62-36.55,61.29-28.51,16.65-30.66-25.81-33.88-30.11-3.22-4.3-9.14-13.46-19.35-4.84-10.21,8.61-50.01,2.7-65.06,17.2-15.03,14.51-8.59,45.16-56.43,37.63-47.86-7.52-22.59-31.71-41.94-33.86-19.35-2.15-26.34,8.06-30.11-13.46-3.75-21.5-29.01-26.87-38.7-18.28-9.69,8.61-17.75,13.98-18.82,29.04-1.07,15.05-53.32,23.67-61.62-.02-8.31-23.69-4.16-41.99-10.39-49.88-6.25-7.91-20.38,11.22-34.1-2.08-13.72-13.3-31.99-16.22-74.81-15.38-14.07.26-26.91-7.63-36.68-18.93-.66-.75-1.29-1.53-1.93-2.34-1.27-1.58-2.48-3.22-3.64-4.93-.57-.83-1.12-1.71-1.67-2.56-8.28-13.28-12.75-28.84-11.42-41.4.04-.48.11-.94.18-1.42.02-.24.07-.5.13-.75.13-.92.31-1.84.53-2.72.07-.18.11-.33.15-.5.13-.5.26-1.01.44-1.49,1.67-5.13,4.62-9.4,9.05-12.34.26-.2.55-.37.83-.5.15-.11.31-.22.48-.31.07-.04.13-.09.22-.13s.17-.09.26-.13c4.14-1.25,8.72-1.97,13.72-2.13,0,0,.18-.02.53-.04.57-.04,1.53-.04,2.78.13.33.04.68.09,1.05.18.81.18,1.73.42,2.7.79.48.18.99.39,1.49.66.26.13.53.26.81.42.48.28.99.61,1.49.96.77.55,1.53,1.21,2.3,1.97,1.01,1.01,1.99,2.21,2.91,3.64.46.72.92,1.51,1.34,2.34.64,1.27,1.23,2.67,1.75,4.23.13.35.24.72.35,1.1.75,2.34,1.31,5.02,1.73,8.09,3.57,27.02,36.11,50.18,84.37,46.06,48.28-4.14,55.71-9.12,69.23-15.73,9.75-4.78,23.78-6.95,30.44-3.88,11.31-.2,15.12,19.55,34.14,24.63,19.02,5.06,35.5-15.23,77.31-12.27,41.79,2.96,25.4,11.83,54.13,15.65,28.75,3.81,47.36-13.52,50.73-17.75,3.4-4.23,56.87-11.48,66.38,3.79,15.62,36.36,98.85-28.64,98.85-28.64,0,0,30.48-22.51,38.53-19.55,0,0,16.54-82.11,2.34-91.56l11.83-1.88s18.17,0,9.09,43.43c0,0,32.81,21.21,22.97,65.65Z"/>
    <path class="cls-5" d="M1323.79,812.18l-250.92,197.84s-301.6-24.24-484.96-120.68c0,0-36.2-149.02,29.43-169.04.04-.02.07.02.02.04-.09.04-.15.09-.22.13-.18.09-.33.18-.48.31-.28.13-.57.31-.83.5-4.43,2.94-7.39,7.21-9.05,12.34-.18.48-.31.99-.44,1.49-.04.18-.09.33-.15.5-.22.88-.39,1.8-.53,2.72-.07.24-.11.5-.13.75-.07.48-.13.94-.18,1.42-1.34,12.56,3.13,28.12,11.42,41.4.55.85,1.1,1.73,1.67,2.56,1.16,1.71,2.37,3.35,3.64,4.93.61.81,1.27,1.6,1.93,2.34,9.77,11.31,22.62,19.2,36.68,18.93,42.82-.83,61.1,2.08,74.81,15.38,13.72,13.3,27.85-5.83,34.1,2.08,6.22,7.89,2.08,26.19,10.39,49.88,8.31,23.69,60.55,15.08,61.62.02,1.07-15.05,9.14-20.42,18.82-29.04,9.69-8.59,34.95-3.22,38.7,18.28,3.77,21.52,10.76,11.31,30.11,13.46,19.35,2.15-5.92,26.34,41.94,33.86,47.84,7.54,41.4-23.12,56.43-37.63,15.05-14.51,54.85-8.59,65.06-17.2,10.21-8.61,16.13.55,19.35,4.84,3.22,4.3,5.37,46.76,33.88,30.11,28.49-16.68,16.67-59.61,15.07-74.67-1.62-15.05,10.74-23.65,28.49-23.12,17.73.55,23.12-7.52,27.96-15.58,4.82-8.06,23.65-24.74,42.47-27.44,18.8-2.67,21.54-16.79,21.54-16.79,9.84-44.44-1.49-52.28-1.49-52.28,9.07-43.43-9.09-43.43-9.09-43.43l-11.83,1.88-186.16,29.67-414.77-74.6c-16.28-5.3-80.31-37.93-19.53-111.91,6.6-8.04,13.56.12,20.91-7.44,0,0,6.04-10.91,6.04-10.93,15.89-5.98,157.15-64.5,251.27-21.4,110.45,50.56,145.55,144.23,145.55,144.23,0,0,138.02-100.71,240.55-31.2l.02.02c3.24,12.69,5.41,26.06,6.4,40.12,0,0,62.72,86.87,14.46,212.33Z"/>
    <path class="cls-7" d="M1302.91,559.71c-96.77-63.3-240.55,31.2-240.55,31.2,0,0-42.53-85.35-177.09-121.41-150.66-40.38-242.34,26.79-258.23,32.77,37.32-60.8,154.64-134.46,226.08-153.98,7.21,11.59,16.35,20.66,23.51,24.43,20.27,10.69,82.75,64.76,153.11,46.17,30.02-7.93,61.89-24.15,89.21-41.64,82.05,33.97,160.61,90.94,183.95,182.46Z"/>
    <path class="cls-7" d="M841.33,314.23c-7.69-42.82,4.03-95.08,4.03-95.08-19.85-111.81-73.67-132.71-73.67-132.71-1.03-7.32,5.24-16.46,5.24-16.46,73.15,68.17,89.98,146.23,89.98,146.23,36.82,18.61,63.22,49.37,64.3,50.67"/>
    <path class="cls-6" d="M1189.09,316.99c-4.84,10.98-33.38,36.77-70.12,60.26-27.33,17.49-59.19,33.7-89.21,41.64-70.37,18.58-132.84-35.48-153.11-46.17-7.17-3.77-16.3-12.84-23.51-24.43-6.22-10.04-11-21.98-11.79-34.05-.9-13.43,3.13-27.02,15.6-38.33,35.92-32.61,72.91-9.88,74.27-9.03.02,0,.04.02.04.02,24.21,25.33,18.58,35.46,40.54,55.16,21.94,19.7,52.35,11.26,68.68,6.77,16.33-4.51,122.15-31.53,129.47-32.65,7.32-1.14,27.59,1.69,19.15,20.82Z"/>
    <g>
      <path class="cls-3" d="M667.9,607.62c20.75,3.59,41.5,7.17,62.25,10.76,2.22.38,3.98,3.71,3.76,7.38-3.04,49.12-5.99,102.45-9.04,151.57-.24,3.91-3.83,6.81-7.54,6.46-13.14-.15-58.07-8.31-63.83-48.96-1.23-6.05-2.89-11.02-10.35-16.06-6.99-12.8,3.12-101,16.5-108.17,2.13-2.26,5.9-3.39,8.26-2.98ZM699.92,707.3c4.33-23.43,4.5-38.29,7.13-62.16.6-7.77-3.12-12.38-9.06-13.55-12.42-2.81-21.46-4.36-32.97-6.37-2.88-.71-2.19.03-3.15,3.98-4.93,23.65-6.2,54.73-9.38,78.66-.47,2.68-.35,2.57,2,3.29,11.73,4.21,18.04,4.68,33.54,6.01,5.23,1.06,10.3-3.1,11.89-9.86Z"/>
      <path class="cls-3" d="M748.3,623.22c27.39,4.73,54.77,9.46,82.16,14.2,2.94.51,5.4,3.26,5.27,6.11-.54,12.02-.81,18.03-1.36,30.05-.13,2.85-2.67,4.77-5.59,4.46-11.9-1.23-18.23-.6-28.45-1.01-2.51-.1-4.75-2.81-4.79-6.02-.11-8.82-.16-13.23-.26-22.05-.04-3.21-2.36-6.15-5.21-6.55-11.87-1.7-17.83-2.56-30.54-4.31-3.23-.44-5.73,2.12-5.69,5.69.18,16.15.27,24.23.45,40.38.04,3.57,3.19,6.53,6.9,6.59,14.58.24,19.86.32,30.18.32,2.47,0,4.45,2.8,4.49,6.01.04,3.21-1.78,6.11-4.16,6.21-9.93.43-15.03.55-30.09.69-3.83.04-7.06,2.95-7.02,6.52.12,10.35.17,15.53.29,25.88.04,3.57,3.76,6.25,7.94,5.93,18.22-1.91,34.95-3.97,52.58-8.76,3.04-.51,5.64-3.07,5.76-5.97.09-2.17.14-3.26.23-5.43.12-2.9,2.9-5.39,5.8-5.29,2.91.11,5.12,2.76,4.99,5.61-.63,14.01-.95,21.02-1.58,35.03-.14,3.02-2.42,5.05-5.31,5.17-28.32,3.99-23.02,15.98-79.57,18.61-6.06.54-8.16-2.3-8.03-6.17,1.63-48.74,3.26-97.48,4.89-146.22.12-3.65,2.61-6.2,5.72-5.66Z"/>
      <path class="cls-3" d="M853.28,640.61c30.05,5.19,60.11,10.39,90.16,15.58,3.22.56,5.93,3.23,5.8,5.93-.65,13.34-.98,20.01-1.64,33.34-.13,2.69-3.78,4.46-7.62,4.15-3.84-.31-6.8-2.69-6.52-5.43.21-2.06.31-3.09.52-5.16.28-2.75-2.34-5.41-5.74-5.66-21.96-1.19-44.47-1.46-65.4-8.76-3.23-1.09-5.78.69-5.96,3.67-.56,9.15-.84,13.73-1.4,22.88-.19,3.16,1.8,6.81,4.82,8.45,27.35,9.31,49.66,6.31,78.41,5.95,4.07.22,7.77,2.81,7.64,5.5-.8,16.33-1.6,32.67-2.4,49-.14,2.86-4.6,6.92-9.51,7.04-46.73,2.5-61.38,30.07-87.94-7.98-3.23-2.89-3.06-6.52-2.96-9.56.37-12.03.56-18.05.93-30.08.09-2.87,2.24-4.65,4.84-3.06,2.45,1.5,4.3,5.64,4.1,8.8-.18,2.98,1.56,7.03,4.38,9.22,18.86,15.35,42.03,6.38,63.19,2.81,3.81-.44,7.42-2.86,7.7-5.61.44-4.4.67-6.6,1.11-11,.3-2.92-2.69-5.12-6.36-4.92-30.23,3.01-46.86,4.55-73.59-10.76-2.71-1.46-4.78-4.47-4.69-7.51.65-20.89,1.29-41.79,1.94-62.68.09-2.87,2.78-4.74,6.2-4.15Z"/>
      <path class="cls-3" d="M1058.35,698.77c-10.77-.72-17.27.24-31.67-.66-3.53-.22-6.93,1.87-7.12,4.67-1.23,17.82-2.47,35.64-3.7,53.46-.19,2.8,3.85,5.14,8.16,4.63,17.6-2.08,24.16-7.57,30.18-10.2,1.48-.65,4.96.31,4.76,2.5-.56,5.93-.84,8.89-1.39,14.82-.22,2.33-4.33,5.54-5.27,6.56-6.81,9.87-28.12,17.48-46.89,17.13-16.25-.3-24.85-10.14-31.97-10.95-6.36-1.08-9.69-3.99-9.65-6.87.1-7.3.16-13.06.26-20.36.04-2.7,3.85-4.6,7.53-3.86,14.04,2.82,13.3,5,22.79,8.16,2.49.83,5.21-.88,5.52-3.68,1.94-17.83,3.88-35.67,5.82-53.5.3-2.8-1.98-5.73-5.07-6.39-11.81-2.52-15.99-3.97-29.22-6.39-3.47-.63-6.4-3.29-6.36-5.99.1-7.37.16-9.11.26-16.48.04-2.7,2.65-4.45,6.02-3.87,29.64,5.15,59.28,10.3,88.92,15.45,3.18.55,5.79,2.82,5.58,5.01-.56,5.98-.84,7.04-1.41,13.02-.21,2.2-3.43,3.95-6.07,3.78Z"/>
      <path class="cls-3" d="M1172.8,717.61c-1.34,18.86-2.67,37.73-4.01,56.59-.19,2.7-3.51,6.52-7.09,7.95-17.44,6.69-33.2,7.5-37.57,1.18-7.61-11.01-9.14-13.04-44.61-13.78-4.03.28-6.81-1.25-6.75-3.39.79-28.61,1.59-54.41,2.38-83.02.06-2.28,2.71-4.41,6.11-4.93,29.85-4.55,59.71-9.09,89.57-13.64,3.2-.49,5.84,1.28,5.64,4.15-.52,7.3-.78,8.12-1.29,15.42-.2,2.87-3.24,5.74-6.53,6.45-25.52,4.56-49.63,4.3-75.4,5.93-3.57.35-6.32,2.44-6.34,4.73-.09,16.49-.14,24.73-.23,41.22-.01,2.3,3.05,3.89,6.98,3.89,23.89,3.48,33.63,11.27,57.59,10.57,3.33-.74,6.32-3.84,6.56-6.8.22-2.78-2.38-4.25-5.7-3.54-22.18,4.78-23.52-5.12-44.86-7.67-3.2-.38-6.32-2.45-6.36-4.67-.12-6-.18-9-.3-15-.05-2.36,2.9-4.24,6.1-4.16,21.79,5.32,38.4,3.41,60.16-.78,3.58-.95,6.16.42,5.96,3.29Z"/>
      <path class="cls-3" d="M1191.83,660.35c19.66-3.01,39.32-6.02,58.98-9.04,2.11-.32,4.76-.11,5.52.85,10.21,23.53,2.11,56.19-2.63,79.97-6.54.15-17.2,6.22-25.8,11.94-2.11,1.4-3.1,1.22-2.9-.13,2.62-27.32,2.72-51.25,1.71-79.09-.11-2-2.01-3.08-4.05-2.65-.2.04-.31.06-.51.1-2.15.44-3.63,2.35-3.44,4.39,2.17,27.48-1.6,55.2-3.09,82.62-.05,1.54-.53,3.06-1.92,4.06-5.29,3.8-11.99,8.72-26.18,16.87-3.72,2.14-6.6,1.48-6.44-1.1,2.17-34.45,4.34-68.9,6.52-103.34.16-2.58,2.02-5.1,4.25-5.44Z"/>
    </g>
    <g>
      <path class="cls-6" d="M1183.07,891.82c-.78.52-1.18.57-1.69.8-.22,0-.29-.12-.5-.13-.14-.24-.45-.43-.47-.85-.05-.48-.1-.96,0-1.56.02-.36-.15-.66-.13-1.02l.16-2.03c.05-.3.13-.54.07-.66-.08-.54-.17-1.08-.07-1.68-.05-.48-.1-.96,0-1.56l-.1-.18c.15-.89.18-1.61.18-2.39-.02-1.2.14-2.45.12-3.65.05-.3-.05-.48-.04-.84-.02-.42.11-.95-.09-1.32.05-1.08.1-2.15-.04-3.17-.09-2.1-.03-4.31.07-6.46-.1-.19-.05-.48.03-.72-.02-.42.15-.89.16-1.25-.02-.42-.07-.9.06-1.43.07-.66-.02-1.2.01-1.92-.02-1.2-.19-2.28-.09-3.65.16-.47.15-.89.13-1.31-.04-1.62.1-3.29.21-5.02.08-1.02-.02-1.98-.12-2.94l.11-.95c-.03-.84.08-1.79.19-2.74l-.03-.06c.38-1.24.28-2.2.32-3.27l.36-1.65c.13-.53.29-1,.28-1.42l.11-.95c.2-.41.21-.76.41-1.17.33-.93.84-1.92,1.31-2.97.61-.8,1.37-1.7,2.02-2.44.71-.61,1.39-1.28,2.1-1.9.3-.22.6-.44,1.01-.83l.89-.66c.3-.22.41-.39.72-.61.59-.44,1.37-.93,1.97-1.36.48-.27.93-.6,1.37-.93l.89-.66c1.25-.75,2.51-1.51,3.69-2.04.96-.53,1.95-1.01,2.8-1.37.84-.37,1.57-.56,2.3-.76.87-.31,1.79-.55,2.63-.92,1.49-.34,2.6-.22,3.83-.28.07.12.31.19.57.26.9.1,1.38.6,1.98.91.28.13.27.48.58.67l.7,1.26c.21,0,.14.24.2.36.51.9.38,2.18.25,3.46-.15.87-.48,1.79-.77,2.78-.26,1.04-.7,2.14-1.44,3.46-.25.69-.64,1.5-1.25,2.3l-.32.58c-.97,1.66-2.16,3.32-3.46,5.15-.92,1.02-1.76,2.17-2.67,3.2l-2.28,2.74c-.15.11-.26.28-.41.39-.68.69-1.32,1.43-1.85,2-.53.57-1.09,1.08-1.66,1.59-.3.22-.41.4-.71.62-.94.97-1.92,1.88-2.93,2.73-1.01.85-1.84,1.65-2.88,2.44-.59.45-1.16.96-1.72,1.48-.3.22-.71.63-.98.91-.7,1.04-1.09,1.86-.97,2.46-.09.24-.13.53-.03.72-.11.95-.23,1.9-.19,2.73-.04,1.07-.12,2.08-.05,2.98-.14.89-.11,1.72-.11,2.5,0,.77,0,1.55-.11,2.5l.09,1.31c.09.54.02,1.19,0,1.9-.03.72-.1,1.37.06,2.03.04.84.11,1.73.03,2.74l.02,1.19c.02,1.19.04,2.38-.12,3.63.1.18.05.48.12.6l.08,2.44c.05.48.1.95-.03,1.49-.12.17-.05.29-.17.47-.26.29-.38.47-.5.64-.45.35-.75.58-1.01.87-.53.59-1.13,1.06-1.61,1.34-.63.4-1.26.81-1.56,1.04ZM1191.52,850.14l1.69-1.53c.3-.22.71-.62.97-.91.53-.57,1.09-1.08,1.59-1.71,1.21-1.25,2.35-2.62,3.38-3.82.53-.57,1.06-1.14,1.4-1.66.64-.74,1.14-1.37,1.45-1.95l1.65-2.35c.5-.63.96-1.31,1.27-1.89.05-.29.43-.75.63-1.15.31-.57.33-.93.64-1.5l.2-.4c.13-.52.41-1.16.54-1.68.36-.86.46-1.45.67-2.2.33-.92.21-1.52.05-2.17-.02-.41-.19-.71-.21-1.12-.05-.48-.28-.9-.63-1.15-.57-.26-1.02-.7-1.73-.85-.32-.19-.75-.21-1.29-.06-.91.25-1.71.32-2.62.57-.55.15-1.36.58-1.91.72-.73.2-1.54.62-2.32,1.11l-1.44.81-1.64,1.21c-.44.33-.86.72-1.27,1.12-.53.56-.87,1.08-1.4,1.64-.82,1.56-1.35,2.9-1.55,4.07-.06.65-.24,1.48-.46,2.24-.07.65-.1,1.37-.31,2.13-.15.89-.26,1.83-.11,2.5.04.06.1.19-.01.36.09.54.06,1.25,0,1.91.14,1.02.12,2.15.11,3.28.03.83-.08,1.78-.01,2.68.06.13.1.19.02.42l-.16,2.02c.02.42.18.72.8.69.33-.16.81-.44.96-.55l1.04-.78Z"/>
      <path class="cls-6" d="M1259.47,830.08c-.7.29-1.25.46-1.53.35-.61-.28-1.09-.73-1.1-1.47-.26-.79-.63-1.41-1.04-2.09l-.47-.8c-.23-.74-.57-1.3-.75-1.99-.14-.23-.27-.46-.26-.8-.63-1.42-1.14-3.02-2.07-4.22-.56-.57-.96-1.26-1.25-2.12-.12-.57-.39-1.03-.66-1.49-.13-.23-.42-.35-.56-.58-.32-.18-.83.04-1.61.55l-2.04,1.28c-1.9,1.51-3.66,2.91-5.63,4.31l-.9.67c-1.28,1.12-2.77,2.24-4.14,3.19-.9.67-1.6,1.29-2.32,1.91-.98.9-1.62,1.64-2.08,2.32-.39.8-.97,1.66-1.07,2.23-.65,1.84-1.01,3.45-1.07,4.84.09.52-.16,1.21-.22,1.85-.93,3.22-1.34,6.23-2.06,9.47.02.41-.26,1.04-.39,1.56-.25.69-.31,1.33-.55,2.02-.28.63-.23,1.1-.48,1.79-.29.98-.59,1.97-1.03,3.07-.13.52-.56,1.27-1.06,1.91-.23.35-.65.75-1.13,1.04-.92.63-2.04,1.32-3,1.89-.33.17-.66.34-.88.34-.55.17-.95.22-1.24.11-.28-.12-.38-.3-.37-.65.14-.87.29-1.75.61-2.67.27-1.05.56-2.03.67-2.97-.02-.41.14-.87.31-1.33.34-1.28.5-2.5.84-3.78.19-1.16.54-2.43,1.03-3.82.25-.69.46-1.45.34-2.03.06-.64.28-1.39.49-2.14.54-1.68.9-3.3,1.4-5.03.45-2.2,1.02-4.57,1.32-6.65.46-1.44.58-2.71.89-4.04.46-1.44.76-2.76,1.1-4.03l1.53-6.27c.55-2.01,1.1-4.01,1.51-5.91.05-.28.25-.68.3-.97.4-1.14.66-2.17.92-3.2.15-.86.44-1.83.73-2.8.14-.86.44-1.83.58-2.69.39-1.54.78-3.08,1.31-4.74.31-1.32.8-2.67,1.28-4.04.38-1.2.89-2.5,1.42-3.8.28-.62.88-1.39,1.89-2.21.26-.27.56-.49.68-.66,1.42-1.19,2.64-2,3.96-2.63.33-.16.66-.31.88-.3.52-.21.91-.25,1.01-.07l.5.88c.52.54.78,1.35,1.18,2.05.49.48.86,1.12,1.23,1.77.29.87.69,1.57.95,2.38l.91,1.57c.44.76.88,1.51,1.17,2.38.09.52.17,1.03.74,1.28.16.63.46,1.15.77,1.67.84,1.45,1.57,3.06,2.45,4.56.61,1.03,1.36,1.96,1.64,3.16l.64,1.09c.18,1.02.8,1.71,1.31,2.57l.4.68c.44,1.48,1.19,2.73,1.9,3.93l.51.85c.2.34.25.79.46,1.14.37.62.9,1.13,1.12,1.87.39.28.36.96.75,1.24l.13.23c-.03.68.43,1.08.55,1.64.4.68.66,1.47.95,2.31l.41.68c.51.84.72,1.91.93,2.98.17.28.04.79-.42,1.46-.31.57-.69,1.02-1.29,1.48-.42.4-.9.68-1.35,1.03-.96.57-1.78,1.03-2.62,1.43ZM1242.35,815.72c1.64-1.23,3.03-2.52,4.59-3.85.53-.56,1.06-1.12,1.01-1.58-.02-.4,0-.74-.18-1.03-.25-.81-.63-1.44-1.03-2.13-.13-.23-.42-.35-.59-.64-.11-.92-.73-1.62-1.2-2.43-.23-.41-.65-.76-.74-1.28-.26-.81-.69-1.56-1.1-2.26-.46-1.16-1.06-2.21-1.64-3.21-.62-.71-1.09-1.53-1.53-2.29l-.07-.12c-.21,0-.25-.07-.4.04-.33.16-.45.33-.56.49-.28.62-.41,1.14-.53,1.65-.34,1.25-.68,2.5-1.21,3.81-.29.97-.43,1.83-.73,2.79-.13.51-.23,1.09-.47,1.77l-.32,1.66c-.46,1.42-.58,2.68-.89,4-.47,1.77-.76,3.49-.93,5.04-.18,1.55-.5,3.22-1,4.93-.08.23-.16.46-.1.58-.02.34-.03.69.41.7l.55-.16c.93-.61,1.67-1.17,2.57-1.84,1.94-1.45,3.99-3.07,6.08-4.63Z"/>
      <path class="cls-6" d="M1288.46,812.77c-1.3.75-2.36,1.16-3.12,1.01-.98-.87-1.7-2.03-2.37-3.13-.53-.49-.72-1.16-1.06-1.71-.76-1.94-2-3.6-3.2-5.21l-.48-.78c-.26-.78-.81-1.34-1.19-1.95-.41-.67-1-1.28-1.4-1.96-.46-1.12-1.19-1.96-1.8-2.97l-2.45-2.99-1.53-2.54c-.3-.51-.61-1.02-1.06-1.42-.52-.51-.89-1.14-1.11-1.87-.43-1.08-1-2.05-1.88-2.8l-.54-.92c-.84-.7-1.2-1.66-1.74-2.58-.28-.12-.38-.3-.48-.47-.79-.98-1.25-2.13-1.89-3.22-.17-.29-.19-.68-.39-1.03-.17-.29-.16-.63-.03-1.13-.02-.39.32-.89.82-1.5l.56-.49,3.08-1.99c.62-.37,1.11-.64,1.62-.85.55-.15.95-.2,1.23-.07l.2.34c.37.63.89,1.15.97,1.99.01.39.22.74.54.92.35.23.52.52.58.97.19.68.53,1.25,1.01,1.71.42.34.73.86,1,1.31.82,1.03,1.53,2.22,2.22,3.35.13.23.38.29.34.57.5,1.18,1.4,1.98,1.9,3.16.07.11.17.28.42.34.35.23.55.56.61,1.01l.47.78c.42.34.66.73.93,1.18.14.95.88,1.45,1.17,2.29.07.11.14.23.36.23l1.12,1.84c.17.28.34.56.7.78l.34.56c1.17,1.56,2.19,3.21,3.36,4.76l1.06,1.71c.31.5.73.82,1.48.98.07.11.22,0,.48-.28.15-.11.27-.28.38-.45.08-.22.16-.45.09-.56l.94-3.77c.61-1.83.9-3.49,1.17-5.15.28-1.66.75-3.37,1.21-5.09l.38-1.49c.27-1.33.53-2.65.96-4.09.44-2.09.92-4.14,1.65-6.45l.21-.72c.54-1.92.94-3.74,1.49-5.66l.55-2.25.45-1.37c.23-1.37.76-2.96,1.11-4.49.38-1.48.91-3.07,1.29-4.54l.45-1.37c.14-.82.43-1.75.75-2.62.57-1.53,1.02-2.89,1.28-4.2l.55-2.24.59-1.14c.31-.54.95-1.24,1.84-1.88.44-.32.92-.58,1.52-1.01.84-.37,1.69-.74,2.57-1.05.55-.16.8-.1,1.05-.04.17.27.34.55.25,1.09-.01.33-.25.98-.53,1.57-.31,1.57-.99,3.25-1.63,4.99l-.24.65c-.23,1.36-.76,2.94-1.29,4.52-.41,1.41-.64,2.78-1.21,4.3-.26.98-.48,2.02-.58,2.89-.15,1.15-.49,2.35-1,3.61-.37,1.15-.7,2.35-.93,3.39l-.94,3.72c-.24.66-.3,1.26-.4,1.81-.59,2.19-.88,4.17-1.36,6.2,0,.33-.06.6-.25.99-.84,2.14-1.17,4.07-1.68,6.05l-.11.88c-.38,1.49-.65,2.81-.88,4.19-.05,1.32-.58,2.92-1.11,4.52-.24.66-.33,1.22-.55,1.94-.23,1.38-.5,2.7-1.03,4.31.04.05-.08.22-.01.33-.14.83-.13,1.54-.6,2.55-.32.89-.32,1.61-.45,2.43-.51.95-.95,2.01-1.97,3.19-.86.74-1.69,1.53-2.73,2.33-.63.4-1.41.91-2.08,1.26Z"/>
    </g>
  </g>
</svg>