<?xml version="1.0" encoding="UTF-8"?>
<svg id="Layer_1" data-name="Layer 1" xmlns="http://www.w3.org/2000/svg" viewBox="0 0 1920 1080">
  <defs>
    <style>
      .cls-1 {
        fill: none;
      }

      .cls-2 {
        fill: #c1ef18;
      }

      .cls-3 {
        fill: #1e1e1e;
      }

      .cls-4 {
        fill: #a01ef4;
      }

      .cls-5 {
        fill: #fff;
      }

      .cls-6 {
        fill: #313335;
      }
    </style>
  </defs>
  <g>
    <path class="cls-5" d="M693.29,426.86s.48-.17,1.36-.52l-1.36.52Z"/>
    <path class="cls-5" d="M661.66,464.49s.48-.17,1.36-.52l-1.36.52Z"/>
    <path class="cls-5" d="M1071.6,1013.4c-.24,0-.47,0-.71-.03-.75-.06-76.09-6.23-172.59-24.01-89.27-16.45-215.53-46.5-310.13-96.25-2.25-1.18-3.88-3.27-4.48-5.74-.37-1.54-9.18-38.21-10.03-78.02-.51-23.87,2-43.92,7.45-59.6,7.36-21.16,20.04-34.63,37.68-40.01,0,0,.24-.07.31-.1,2.24-.68,4.58-1.22,7.01-1.62-.47-23.17.71-78.53,20.74-107.17-13.11-6.98-28.76-19.48-35.4-37.96-7-19.49-2.96-41.32,12-64.88,36.46-59.32,145.28-129.26,218-152.85-3.59-7.63-6.74-16.98-7.49-27.23-6.96-39.5,1.75-85.49,3.76-95.21-5.44-29.79-16.86-70.71-40.57-100.02-14.25-17.62-26.4-22.74-26.52-22.79-2.98-1.16-5.03-3.81-5.48-6.98-1.42-10.12,5.28-20.52,6.64-22.5,1.46-2.12,3.77-3.51,6.32-3.79.32-.04.65-.05.97-.05,2.23,0,4.38.84,6.03,2.37,64.79,60.38,85.95,127.68,90.53,145,34.43,18.42,58.82,45.9,62.29,49.92l.05.05c12.61,13.19,17.63,22.59,22.07,30.89,4.27,7.99,7.65,14.31,17.52,23.17,7.54,6.77,16.99,10.06,28.88,10.06,11.44,0,22.54-3.05,30.63-5.28l.12-.03c13.04-3.6,120.74-31.23,128.97-32.49,1.34-.21,2.84-.32,4.45-.32,3.89,0,17.08.77,23.55,10.69,2.8,4.29,5.14,11.69.36,22.52-5.27,11.95-29.1,33.72-58.95,54.34,39.56,17.89,73.2,39.36,100.17,63.96,36.36,33.16,60.46,71.97,71.63,115.35.05.17.1.34.15.51,3.18,12.45,5.33,25.5,6.4,38.84,4.27,6.53,16.73,27.36,24.95,59.23,9.02,34.98,14.43,90.57-11.05,156.81-.57,1.48-1.53,2.79-2.78,3.77l-248,195.54c-1.56,1.23-3.5,1.9-5.47,1.9Z"/>
    <path class="cls-5" d="M1305.3,599.16c-.97-13.91-3.12-27.12-6.32-39.66l-.02-.02c-23.07-90.45-100.71-146.76-181.81-180.33,36.32-23.22,64.52-48.71,69.31-59.56,8.34-18.91-11.7-21.7-18.93-20.58-7.23,1.1-111.83,27.81-127.96,32.27-16.14,4.44-46.2,12.78-67.88-6.69-21.7-19.47-16.14-29.48-40.07-54.52,0,0-.02-.02-.04-.02h0c-1.06-1.28-27.16-31.69-63.55-50.08,0,0-16.63-77.15-88.93-144.53,0,0-6.19,9.03-5.18,16.27,0,0,53.19,20.66,72.82,131.17,0,0-11.59,51.66-3.99,93.98h0c.78,11.93,5.5,23.74,11.65,33.66-70.61,19.3-186.57,92.11-223.45,152.19h0c-39.51,62.13,15.81,90.13,30.71,94.98-30.06,23.83-26.84,109.68-26.47,117.72,0,.3.26.56.54.56-.35.02-.52.04-.52.04-4.94.15-9.46.87-13.56,2.1-.09.04-.17.09-.26.13.04-.02.02-.06-.02-.04-64.87,19.8-29.09,167.08-29.09,167.08,181.22,95.32,479.32,119.28,479.32,119.28l248-195.54c47.69-124-14.3-209.86-14.3-209.86ZM654.49,732.19c-.11-.37-.22-.74-.35-1.08.13.35.26.71.35,1.08ZM652.41,726.93c-.41-.82-.87-1.6-1.32-2.32.48.71.91,1.49,1.32,2.32ZM621.18,718.37c-.17.09-.32.19-.48.3.15-.13.3-.22.48-.3ZM626.05,786.49c.63.8,1.26,1.58,1.91,2.32-.65-.74-1.3-1.52-1.91-2.32Z"/>
  </g>
  <g>
    <path class="cls-1" d="M1253.24,732.58c-7.95-2.92-38.08,19.32-38.08,19.32,0,0-82.26,64.24-97.7,28.31-9.4-15.1-62.25-7.93-65.61-3.75-3.34,4.18-21.72,21.31-50.14,17.54-28.39-3.77-12.19-12.54-53.5-15.46-41.33-2.92-57.61,17.13-76.41,12.13-18.8-5.02-22.57-24.54-33.74-24.34-6.58-3.03-20.45-.89-30.08,3.83-13.36,6.54-20.71,11.46-68.42,15.55-47.69,4.07-79.86-18.82-83.39-45.53-.41-3.03-.97-5.67-1.71-7.99-.09-.37-.22-.74-.35-1.08-.52-1.54-1.1-2.92-1.73-4.18-.41-.82-.84-1.6-1.32-2.32-.91-1.41-1.88-2.6-2.88-3.6-.76-.76-1.52-1.41-2.27-1.95-.5-.35-1-.67-1.47-.95-.28-.15-.54-.28-.8-.41-.5-.26-1-.48-1.47-.65-.95-.37-1.86-.61-2.66-.78-.37-.09-.71-.13-1.04-.17-1.23-.17-2.19-.17-2.75-.13-.28,0-.54-.26-.54-.56-.37-8.04-3.6-93.89,26.47-117.72l409.94,73.73,183.99-29.33c14.04,9.34-2.32,90.49-2.32,90.49Z"/>
    <path class="cls-2" d="M1298.94,748.05s-2.71,13.95-21.29,16.59c-18.61,2.66-37.21,19.15-41.98,27.12-4.79,7.97-10.11,15.94-27.64,15.4-17.54-.52-29.76,7.97-28.16,22.85,1.58,14.88-7.97,44.1-36.13,60.58-28.18,16.46-30.3-25.51-33.48-29.76-3.18-4.25-9.03-13.3-19.13-4.79-10.09,8.51-49.43,2.66-64.31,17-14.86,14.34-8.49,44.64-55.77,37.19-47.3-7.43-22.33-31.34-41.46-33.46-19.12-2.12-26.03,7.97-29.76-13.3-3.7-21.25-28.68-26.55-38.25-18.06-9.57,8.51-17.54,13.82-18.61,28.7-1.06,14.88-52.7,23.39-60.91-.02s-4.12-41.5-10.27-49.3c-6.17-7.82-20.14,11.09-33.7-2.06-13.56-13.15-31.62-16.03-73.94-15.2-13.91.26-26.6-7.54-36.26-18.71-.65-.74-1.28-1.52-1.91-2.32-1.26-1.56-2.45-3.18-3.6-4.87-.56-.82-1.1-1.69-1.65-2.53-8.19-13.13-12.61-28.5-11.28-40.91.04-.48.11-.93.17-1.41.02-.24.07-.5.13-.74.13-.91.3-1.82.52-2.69.07-.17.11-.32.15-.5.13-.5.26-1,.43-1.47,1.65-5.07,4.57-9.29,8.95-12.19.26-.19.54-.37.82-.5.15-.11.3-.22.48-.3.07-.04.13-.09.22-.13s.17-.09.26-.13c4.09-1.23,8.62-1.95,13.56-2.1,0,0,.17-.02.52-.04.56-.04,1.52-.04,2.75.13.32.04.67.09,1.04.17.8.17,1.71.41,2.66.78.48.17.97.39,1.47.65.26.13.52.26.8.41.48.28.97.61,1.47.95.76.54,1.52,1.19,2.27,1.95,1,1,1.97,2.19,2.88,3.6.45.71.91,1.49,1.32,2.32.63,1.26,1.21,2.64,1.73,4.18.13.35.24.71.35,1.08.74,2.32,1.3,4.96,1.71,7.99,3.53,26.71,35.69,49.6,83.39,45.53,47.72-4.09,55.06-9.01,68.42-15.55,9.64-4.72,23.5-6.87,30.08-3.83,11.18-.19,14.94,19.32,33.74,24.34,18.8,5,35.09-15.05,76.41-12.13,41.3,2.92,25.1,11.7,53.5,15.46,28.42,3.77,46.81-13.36,50.14-17.54,3.36-4.18,56.21-11.35,65.61,3.75,15.44,35.93,97.7-28.31,97.7-28.31,0,0,30.13-22.24,38.08-19.32,0,0,16.35-81.16,2.32-90.49l11.7-1.86s17.96,0,8.99,42.93c0,0,32.42,20.97,22.7,64.89Z"/>
    <path class="cls-6" d="M1319.56,809.02l-248,195.54s-298.09-23.96-479.32-119.28c0,0-35.78-147.28,29.09-167.08.04-.02.06.02.02.04-.09.04-.15.09-.22.13-.17.09-.32.17-.48.3-.28.13-.56.3-.82.5-4.38,2.9-7.3,7.13-8.95,12.19-.17.48-.3.97-.43,1.47-.04.17-.09.32-.15.5-.22.87-.39,1.78-.52,2.69-.07.24-.11.5-.13.74-.07.48-.13.93-.17,1.41-1.32,12.41,3.1,27.79,11.28,40.91.54.84,1.08,1.71,1.65,2.53,1.15,1.69,2.34,3.31,3.6,4.87.61.8,1.26,1.58,1.91,2.32,9.66,11.18,22.35,18.97,36.26,18.71,42.32-.82,60.39,2.06,73.94,15.2,13.56,13.15,27.53-5.76,33.7,2.06,6.15,7.8,2.06,25.88,10.27,49.3s59.84,14.9,60.91.02c1.06-14.88,9.03-20.19,18.61-28.7,9.57-8.49,34.55-3.18,38.25,18.06,3.73,21.27,10.63,11.18,29.76,13.3,19.13,2.12-5.85,26.03,41.46,33.46,47.28,7.45,40.91-22.85,55.77-37.19,14.88-14.34,54.21-8.49,64.31-17,10.09-8.51,15.94.54,19.13,4.79,3.18,4.25,5.31,46.22,33.48,29.76,28.16-16.48,16.48-58.92,14.9-73.8-1.6-14.88,10.61-23.37,28.16-22.85,17.52.54,22.85-7.43,27.64-15.4,4.76-7.97,23.37-24.45,41.98-27.12,18.58-2.64,21.29-16.59,21.29-16.59,9.72-43.92-1.47-51.67-1.47-51.67,8.97-42.93-8.99-42.93-8.99-42.93l-11.7,1.86-183.99,29.33-409.94-73.73c-16.09-5.24-79.38-37.49-19.3-110.61,6.52-7.95,13.41.11,20.66-7.36,0,0,5.97-10.78,5.97-10.81,15.7-5.91,155.33-63.75,248.35-21.15,109.16,49.97,143.86,142.55,143.86,142.55,0,0,136.42-99.54,237.75-30.84l.02.02c3.21,12.54,5.35,25.75,6.32,39.66,0,0,61.99,85.86,14.29,209.86Z"/>
    <path class="cls-3" d="M1298.92,559.48c-95.64-62.56-237.75,30.84-237.75,30.84,0,0-42.03-84.36-175.03-120-148.91-39.91-239.52,26.48-255.23,32.39,36.88-60.09,152.85-132.9,223.45-152.19,7.13,11.46,16.16,20.42,23.24,24.15,20.03,10.57,81.78,64,151.33,45.64,29.67-7.84,61.17-23.87,88.17-41.15,81.09,33.57,158.74,89.89,181.81,180.33Z"/>
    <path class="cls-6" d="M842.71,316.86c-7.6-42.32,3.99-93.98,3.99-93.98-19.62-110.5-72.82-131.17-72.82-131.17-1.02-7.23,5.18-16.27,5.18-16.27,72.3,67.38,88.93,144.53,88.93,144.53,36.39,18.39,62.49,48.8,63.55,50.08"/>
    <path class="cls-2" d="M1186.42,319.59c-4.79,10.85-32.99,36.34-69.31,59.56-27.01,17.28-58.5,33.31-88.17,41.15-69.55,18.37-131.3-35.07-151.33-45.64-7.08-3.73-16.11-12.69-23.24-24.15-6.15-9.92-10.87-21.72-11.65-33.66-.89-13.28,3.1-26.71,15.42-37.88,35.5-32.23,72.06-9.77,73.4-8.92.02,0,.04.02.04.02,23.93,25.04,18.37,35.04,40.07,54.52,21.68,19.47,51.74,11.13,67.88,6.69,16.14-4.46,120.73-31.17,127.96-32.27,7.23-1.13,27.27,1.67,18.93,20.58Z"/>
    <g>
      <path class="cls-4" d="M671.29,602.27c20.51,3.69,41.02,7.38,61.52,11.07,2.2.4,3.94,3.81,3.71,7.6-3.01,50.55-5.92,105.43-8.93,155.98-.24,4.02-3.79,7.01-7.46,6.65-12.99-.15-57.4-8.55-63.09-50.39-1.22-6.23-2.86-11.34-10.22-16.53-6.91-13.17,3.08-103.94,16.3-111.31,2.1-2.33,5.83-3.49,8.16-3.07ZM702.94,704.85c4.28-24.11,4.44-39.4,7.04-63.97.59-7.99-3.08-12.74-8.95-13.94-12.27-2.89-21.21-4.49-32.59-6.56-2.85-.73-2.17.03-3.11,4.1-4.87,24.34-6.13,56.33-9.27,80.94-.46,2.75-.35,2.65,1.98,3.38,11.6,4.33,17.83,4.81,33.15,6.18,5.17,1.09,10.18-3.19,11.75-10.14Z"/>
      <path class="cls-4" d="M750.76,618.33c27.07,4.87,54.14,9.74,81.21,14.61,2.9.52,5.33,3.35,5.21,6.28-.54,12.37-.8,18.55-1.34,30.92-.13,2.93-2.64,4.9-5.53,4.59-11.76-1.27-18.02-.61-28.12-1.04-2.48-.1-4.7-2.89-4.73-6.19-.1-9.08-.16-13.62-.26-22.7-.04-3.3-2.34-6.32-5.15-6.74-11.73-1.75-17.62-2.64-30.19-4.43-3.2-.46-5.66,2.18-5.62,5.85.18,16.62.27,24.93.45,41.56.04,3.68,3.15,6.72,6.82,6.78,14.41.25,19.62.32,29.83.33,2.44,0,4.4,2.88,4.44,6.18.04,3.3-1.76,6.29-4.11,6.39-9.82.44-14.86.56-29.74.71-3.78.04-6.98,3.04-6.94,6.71.11,10.65.17,15.98.29,26.64.04,3.68,3.72,6.43,7.84,6.11,18.01-1.97,34.54-4.09,51.97-9.02,3-.53,5.57-3.16,5.69-6.14.09-2.24.13-3.36.22-5.59.12-2.98,2.86-5.55,5.74-5.44,2.87.11,5.06,2.85,4.94,5.77-.62,14.42-.94,21.63-1.56,36.05-.13,3.11-2.39,5.19-5.25,5.32-27.99,4.11-22.75,16.44-78.64,19.16-5.99.56-8.07-2.36-7.94-6.35,1.61-50.16,3.23-100.32,4.84-150.47.12-3.76,2.58-6.38,5.66-5.83Z"/>
      <path class="cls-4" d="M854.53,636.22c29.71,5.34,59.41,10.69,89.12,16.04,3.18.57,5.86,3.32,5.73,6.1-.65,13.72-.97,20.59-1.62,34.31-.13,2.77-3.74,4.59-7.53,4.27-3.8-.32-6.72-2.76-6.45-5.59.21-2.12.31-3.18.52-5.31.27-2.83-2.31-5.57-5.67-5.82-21.7-1.23-43.95-1.5-64.64-9.01-3.19-1.12-5.71.71-5.89,3.77-.55,9.42-.83,14.13-1.38,23.55-.19,3.25,1.78,7.01,4.77,8.7,27.03,9.58,49.09,6.49,77.5,6.12,4.02.22,7.68,2.89,7.55,5.66-.79,16.81-1.58,33.62-2.38,50.43-.14,2.94-4.54,7.12-9.4,7.24-46.19,2.57-60.66,30.94-86.92-8.21-3.19-2.98-3.02-6.71-2.93-9.84.37-12.38.55-18.57.92-30.96.09-2.95,2.21-4.79,4.78-3.15,2.42,1.54,4.25,5.8,4.05,9.05-.18,3.06,1.55,7.24,4.33,9.49,18.64,15.79,41.55,6.57,62.45,2.89,3.76-.45,7.33-2.94,7.61-5.77.44-4.53.66-6.79,1.1-11.32.29-3.01-2.65-5.27-6.28-5.06-29.88,3.09-46.31,4.68-72.73-11.07-2.68-1.5-4.73-4.6-4.63-7.73.64-21.5,1.28-43,1.91-64.5.09-2.95,2.75-4.88,6.13-4.27Z"/>
      <path class="cls-4" d="M1057.21,696.08c-10.64-.74-17.07.24-31.3-.67-3.49-.22-6.85,1.93-7.04,4.81-1.22,18.34-2.44,36.68-3.66,55.01-.19,2.88,3.8,5.29,8.06,4.76,17.39-2.14,23.88-7.79,29.83-10.49,1.46-.66,4.91.32,4.7,2.58-.55,6.1-.83,9.15-1.38,15.25-.22,2.4-4.28,5.7-5.21,6.76-6.73,10.15-27.79,17.99-46.34,17.63-16.06-.31-24.56-10.44-31.6-11.27-6.28-1.11-9.58-4.11-9.54-7.07.1-7.51.15-13.44.26-20.96.04-2.78,3.81-4.73,7.44-3.97,13.87,2.9,13.14,5.15,22.53,8.39,2.46.85,5.15-.9,5.46-3.78,1.92-18.35,3.84-36.7,5.75-55.06.3-2.88-1.96-5.9-5.02-6.58-11.67-2.6-15.8-4.09-28.88-6.58-3.43-.65-6.32-3.38-6.28-6.17.1-7.58.15-11.37.26-18.95.04-2.78,2.62-4.58,5.95-3.98,29.3,5.3,58.59,10.6,87.89,15.9,3.14.57,5.72,2.9,5.51,5.16-.56,6.16-.83,9.23-1.39,15.39-.2,2.26-3.39,4.07-6,3.89Z"/>
      <path class="cls-4" d="M1170.32,715.46c-1.32,19.41-2.64,38.82-3.96,58.24-.19,2.78-3.47,6.71-7,8.18-17.24,6.89-32.82,7.72-37.14,1.22-7.53-11.33-9.03-13.42-44.09-14.18-3.98.28-6.73-1.28-6.67-3.49.78-29.45,1.57-58.89,2.35-88.34.06-2.34,2.68-4.54,6.04-5.07,29.51-4.68,59.02-9.35,88.52-14.03,3.16-.5,5.77,1.32,5.57,4.28-.51,7.51-.77,11.26-1.28,18.77-.2,2.96-3.2,5.91-6.46,6.64-25.22,4.69-49.06,4.43-74.52,6.1-3.52.36-6.25,2.51-6.26,4.87-.09,16.97-.14,25.45-.23,42.42-.01,2.37,3.01,4,6.9,4,23.62,3.58,33.23,11.6,56.92,10.87,3.3-.76,6.25-3.95,6.48-6.99.22-2.86-2.35-4.38-5.63-3.64-21.92,4.91-23.24-5.26-44.34-7.9-3.16-.39-6.24-2.52-6.29-4.81-.12-6.17-.18-9.26-.3-15.44-.05-2.43,2.86-4.36,6.02-4.29,21.54,5.47,37.95,3.51,59.46-.81,3.54-.98,6.09.43,5.89,3.39Z"/>
      <path class="cls-4" d="M1189.14,656.53c19.43-3.1,38.86-6.2,58.29-9.3,2.08-.33,4.71-.11,5.45.87,10.09,24.22,2.08,57.82-2.6,82.3-6.46.16-17,6.4-25.5,12.28-2.09,1.44-3.06,1.25-2.87-.13,2.59-28.12,2.69-52.74,1.69-81.39-.11-2.06-1.99-3.17-4.01-2.73-.2.04-.3.06-.5.11-2.13.45-3.59,2.41-3.4,4.52,2.14,28.28-1.58,56.81-3.06,85.02-.05,1.58-.53,3.15-1.9,4.17-5.23,3.91-11.85,8.98-25.88,17.36-3.68,2.2-6.52,1.52-6.36-1.14,2.15-35.45,4.29-70.9,6.44-106.35.16-2.66,1.99-5.25,4.2-5.6Z"/>
    </g>
    <g>
      <path class="cls-2" d="M1180.48,887.73c-.77.51-1.16.56-1.67.79-.22,0-.28-.12-.5-.13-.13-.24-.45-.42-.46-.84-.05-.47-.1-.95,0-1.54.02-.35-.15-.65-.13-1.01l.15-2.01c.05-.3.13-.53.07-.65-.08-.53-.17-1.07-.07-1.66-.05-.47-.1-.95,0-1.54l-.1-.18c.15-.88.18-1.59.17-2.36-.02-1.19.14-2.42.12-3.61.05-.3-.05-.48-.04-.83-.02-.42.11-.94-.09-1.3.05-1.07.1-2.13-.04-3.14-.08-2.07-.03-4.26.07-6.39-.1-.18-.05-.48.03-.71-.02-.42.15-.88.16-1.24-.02-.41-.07-.89.06-1.42.06-.65-.02-1.19.01-1.9-.02-1.18-.19-2.25-.09-3.61.16-.47.15-.88.13-1.3-.04-1.6.1-3.25.21-4.96.08-1-.02-1.96-.12-2.91l.11-.94c-.03-.83.08-1.77.19-2.71l-.03-.06c.38-1.22.28-2.17.32-3.24l.36-1.63c.13-.52.29-.99.28-1.41l.11-.94c.19-.4.21-.75.41-1.16.32-.92.83-1.9,1.3-2.93.61-.79,1.36-1.68,1.99-2.41.7-.6,1.37-1.27,2.08-1.87.29-.22.59-.44,1-.82l.88-.65c.3-.22.41-.39.71-.61.59-.43,1.36-.92,1.94-1.35.47-.26.92-.59,1.36-.92l.88-.65c1.24-.75,2.48-1.49,3.64-2.01.95-.53,1.93-1,2.77-1.36.83-.36,1.55-.56,2.28-.75.86-.3,1.77-.55,2.6-.91,1.48-.33,2.57-.22,3.79-.27.06.12.31.19.56.26.88.1,1.36.59,1.96.9.28.13.26.47.58.66l.69,1.25c.21,0,.13.23.2.36.5.89.37,2.15.25,3.42-.14.86-.47,1.77-.76,2.74-.26,1.03-.69,2.11-1.43,3.42-.24.69-.63,1.48-1.24,2.27l-.31.57c-.96,1.64-2.13,3.28-3.42,5.09-.9,1.01-1.74,2.15-2.63,3.16l-2.25,2.71c-.14.11-.26.28-.41.39-.67.68-1.31,1.41-1.83,1.98-.52.56-1.08,1.07-1.64,1.57-.29.22-.41.39-.7.61-.93.96-1.9,1.86-2.9,2.7-1,.84-1.82,1.63-2.85,2.41-.59.45-1.14.95-1.7,1.46-.29.22-.71.62-.97.9-.69,1.03-1.08,1.84-.96,2.43-.09.23-.13.53-.03.71-.11.94-.23,1.88-.19,2.7-.04,1.06-.12,2.06-.05,2.94-.14.88-.11,1.7-.11,2.47,0,.76,0,1.53-.11,2.47l.09,1.3c.09.53.02,1.18,0,1.88-.03.71-.1,1.35.06,2,.04.83.11,1.71.03,2.71l.02,1.18c.02,1.18.04,2.36-.12,3.59.1.18.05.47.12.59l.07,2.41c.05.47.1.94-.03,1.47-.11.17-.05.29-.16.47-.26.29-.38.46-.49.64-.44.35-.74.57-1,.86-.52.58-1.12,1.04-1.59,1.33-.63.4-1.25.8-1.54,1.03ZM1188.83,846.53l1.67-1.52c.29-.22.7-.61.96-.89.52-.57,1.08-1.07,1.57-1.69,1.19-1.24,2.32-2.59,3.34-3.78.52-.56,1.04-1.12,1.39-1.64.64-.73,1.13-1.35,1.44-1.92l1.63-2.32c.49-.62.94-1.3,1.26-1.87.05-.29.42-.74.62-1.14.31-.57.32-.91.63-1.49l.2-.4c.13-.52.41-1.15.53-1.66.36-.85.45-1.43.66-2.18.32-.91.2-1.5.05-2.15-.02-.4-.18-.7-.2-1.11-.05-.47-.28-.89-.63-1.14-.56-.26-1.01-.69-1.71-.84-.31-.19-.74-.21-1.28-.06-.9.24-1.69.32-2.59.56-.54.15-1.34.57-1.88.72-.72.2-1.52.62-2.29,1.1l-1.42.8-1.62,1.2c-.44.32-.85.71-1.26,1.1-.52.56-.86,1.06-1.39,1.62-.81,1.54-1.33,2.86-1.53,4.03-.06.64-.24,1.46-.45,2.21-.06.64-.09,1.35-.31,2.1-.14.88-.26,1.81-.11,2.47.04.06.1.18-.01.35.09.54.06,1.24,0,1.88.13,1.01.12,2.12.11,3.24.03.82-.08,1.76-.01,2.65.06.12.1.18.02.41l-.16,1.99c.02.41.18.71.79.68.32-.16.8-.43.95-.55l1.03-.78Z"/>
      <path class="cls-2" d="M1255.99,826.71c-.69.28-1.24.46-1.51.34-.6-.28-1.08-.72-1.09-1.45-.26-.78-.62-1.39-1.02-2.07l-.47-.79c-.22-.73-.56-1.29-.74-1.96-.13-.23-.27-.45-.26-.79-.62-1.41-1.13-2.98-2.05-4.17-.55-.57-.95-1.25-1.24-2.09-.12-.57-.39-1.02-.66-1.47-.13-.23-.41-.34-.55-.57-.31-.17-.82.04-1.59.54l-2.02,1.26c-1.88,1.5-3.62,2.88-5.56,4.26l-.89.66c-1.26,1.11-2.73,2.22-4.09,3.16-.89.67-1.58,1.28-2.29,1.89-.97.89-1.6,1.62-2.06,2.3-.39.79-.96,1.64-1.06,2.21-.65,1.81-1,3.41-1.05,4.78.09.51-.16,1.2-.22,1.83-.92,3.19-1.32,6.16-2.03,9.36.02.4-.26,1.03-.38,1.54-.25.68-.3,1.31-.55,2-.28.63-.23,1.09-.47,1.77-.29.97-.58,1.94-1.02,3.03-.13.52-.56,1.26-1.04,1.89-.23.34-.64.74-1.12,1.03-.91.62-2.02,1.3-2.97,1.87-.33.17-.66.34-.87.34-.54.17-.94.22-1.22.1-.28-.12-.38-.29-.36-.64.14-.86.28-1.73.61-2.64.26-1.03.55-2.01.67-2.93-.02-.4.14-.86.3-1.32.34-1.26.5-2.47.83-3.73.19-1.15.53-2.41,1.01-3.78.24-.69.45-1.43.33-2.01.06-.63.27-1.37.48-2.12.53-1.66.88-3.26,1.39-4.97.45-2.17,1.01-4.51,1.31-6.57.45-1.43.58-2.68.88-4,.45-1.42.75-2.73,1.09-3.98l1.51-6.2c.54-1.98,1.09-3.97,1.49-5.84.05-.28.24-.68.29-.96.4-1.13.66-2.15.91-3.17.14-.85.43-1.81.72-2.77.14-.85.43-1.81.57-2.66.38-1.52.77-3.05,1.3-4.68.3-1.3.79-2.64,1.27-3.99.37-1.18.88-2.47,1.4-3.76.27-.61.87-1.38,1.87-2.18.26-.27.56-.49.67-.65,1.4-1.18,2.61-1.98,3.92-2.6.32-.15.65-.31.87-.3.51-.2.9-.24,1-.07l.5.87c.52.53.77,1.33,1.17,2.03.48.47.85,1.11,1.21,1.74.28.86.68,1.55.94,2.35l.9,1.55c.43.75.87,1.49,1.15,2.35.09.51.17,1.02.73,1.26.15.62.46,1.14.76,1.65.83,1.43,1.55,3.02,2.42,4.5.6,1.02,1.35,1.94,1.62,3.12l.63,1.08c.17,1.01.79,1.69,1.29,2.54l.4.68c.44,1.46,1.17,2.7,1.88,3.88l.5.84c.2.34.25.78.45,1.12.37.62.89,1.12,1.11,1.85.38.28.35.95.74,1.23l.13.22c-.02.67.42,1.06.55,1.62.4.67.65,1.45.94,2.29l.4.67c.5.83.71,1.89.92,2.95.17.28.04.78-.41,1.45-.31.56-.69,1.01-1.27,1.46-.41.4-.89.68-1.33,1.02-.95.56-1.76,1.02-2.59,1.41ZM1239.06,812.51c1.62-1.21,2.99-2.49,4.54-3.81.52-.55,1.05-1.11,1-1.56-.02-.39,0-.73-.17-1.02-.25-.8-.62-1.42-1.02-2.11-.13-.23-.41-.35-.58-.64-.11-.91-.72-1.6-1.18-2.4-.23-.4-.65-.75-.73-1.26-.25-.8-.68-1.55-1.08-2.24-.45-1.15-1.05-2.19-1.62-3.17-.61-.7-1.08-1.51-1.51-2.27l-.07-.12c-.21,0-.24-.07-.39.04-.33.16-.44.32-.56.49-.28.62-.4,1.12-.53,1.63-.34,1.23-.67,2.47-1.19,3.76-.29.96-.43,1.81-.72,2.76-.13.51-.22,1.07-.47,1.75l-.32,1.64c-.45,1.41-.57,2.65-.88,3.95-.46,1.75-.75,3.45-.92,4.98-.17,1.54-.49,3.18-.99,4.88-.08.23-.16.45-.1.57-.01.34-.03.68.4.69l.54-.16c.92-.6,1.65-1.16,2.54-1.82,1.92-1.43,3.94-3.04,6.01-4.58Z"/>
      <path class="cls-2" d="M1284.64,809.59c-1.28.74-2.34,1.14-3.08.99-.97-.86-1.68-2-2.35-3.09-.52-.49-.71-1.14-1.04-1.69-.75-1.92-1.97-3.56-3.16-5.15l-.47-.77c-.26-.77-.8-1.32-1.18-1.93-.4-.66-.98-1.27-1.39-1.93-.46-1.11-1.17-1.94-1.78-2.94l-2.42-2.95-1.51-2.51c-.3-.5-.6-1.01-1.05-1.41-.51-.51-.88-1.13-1.1-1.85-.43-1.06-.99-2.02-1.86-2.76l-.53-.9c-.83-.69-1.18-1.64-1.72-2.55-.28-.12-.38-.29-.48-.46-.78-.97-1.24-2.1-1.87-3.18-.17-.28-.19-.68-.39-1.02-.17-.28-.16-.62-.03-1.12-.02-.39.32-.88.81-1.48l.55-.48,3.04-1.96c.62-.37,1.1-.63,1.6-.84.54-.15.94-.2,1.21-.07l.2.34c.37.62.88,1.13.96,1.97.01.39.22.73.53.9.35.23.52.51.57.96.19.67.52,1.23,1,1.69.42.34.72.85.98,1.29.82,1.02,1.52,2.19,2.19,3.31.13.22.38.29.33.56.49,1.17,1.39,1.96,1.87,3.12.07.11.17.28.42.34.35.22.55.55.6,1l.47.78c.42.33.65.72.92,1.16.14.94.87,1.44,1.16,2.26.07.11.13.22.35.22l1.11,1.82c.17.27.34.55.69.77l.33.55c1.16,1.54,2.16,3.18,3.32,4.71l1.04,1.69c.3.49.72.82,1.46.97.07.11.22,0,.47-.28.15-.11.27-.28.38-.44.08-.22.16-.44.09-.55l.93-3.72c.6-1.81.89-3.45,1.16-5.09.28-1.64.74-3.33,1.2-5.03l.38-1.47c.27-1.31.53-2.62.94-4.04.44-2.07.91-4.09,1.64-6.37l.2-.71c.54-1.9.93-3.69,1.47-5.6l.55-2.22.45-1.35c.23-1.36.76-2.93,1.1-4.44.38-1.47.9-3.03,1.28-4.49l.44-1.35c.14-.81.43-1.73.74-2.59.56-1.51,1-2.86,1.27-4.15l.55-2.21.58-1.13c.31-.54.94-1.23,1.82-1.86.44-.31.91-.58,1.5-1,.83-.36,1.67-.73,2.54-1.04.54-.16.79-.1,1.04-.04.17.27.33.54.24,1.08-.01.32-.25.97-.52,1.55-.31,1.56-.98,3.22-1.61,4.94l-.24.64c-.23,1.35-.75,2.9-1.28,4.47-.41,1.4-.64,2.75-1.19,4.25-.26.97-.47,2-.57,2.86-.15,1.13-.48,2.33-.99,3.57-.37,1.14-.7,2.32-.92,3.35l-.93,3.68c-.24.65-.3,1.24-.39,1.79-.58,2.17-.87,4.12-1.34,6.13,0,.33-.06.59-.25.98-.83,2.12-1.15,4.02-1.66,5.98l-.11.87c-.38,1.47-.64,2.77-.87,4.14-.05,1.3-.57,2.89-1.1,4.47-.24.66-.33,1.2-.54,1.91-.23,1.37-.49,2.67-1.02,4.26.03.05-.08.22-.01.32-.13.82-.13,1.53-.6,2.52-.32.88-.31,1.59-.45,2.4-.5.94-.94,1.98-1.95,3.15-.85.73-1.67,1.51-2.7,2.3-.63.39-1.39.9-2.05,1.24Z"/>
    </g>
  </g>
</svg>